<?xml version="1.0" standalone="no"?>
<!DOCTYPE svg PUBLIC "-//W3C//DTD SVG 20010904//EN"
 "http://www.w3.org/TR/2001/REC-SVG-20010904/DTD/svg10.dtd">
<svg version="1.0" xmlns="http://www.w3.org/2000/svg"
 width="484.000000pt" height="484.000000pt" viewBox="0 0 484.000000 484.000000"
 preserveAspectRatio="xMidYMid meet">
<metadata>
Created by potrace 1.14, written by Peter Selinger 2001-2017
</metadata>
<g transform="translate(0.000000,484.000000) scale(0.100000,-0.100000)"
fill="#000000" stroke="none">
<path d="M1690 4573 c0 -5 -17 -9 -37 -8 -21 0 -42 -2 -48 -4 -5 -3 -14 -6
-20 -7 -5 -1 -28 -5 -50 -9 -22 -4 -49 -8 -60 -10 -27 -4 -146 -34 -165 -42
-19 -8 -40 -13 -65 -16 -11 -1 -23 -6 -27 -11 -6 -9 -15 -12 -70 -23 -16 -3
-25 -10 -22 -15 4 -6 1 -8 -7 -6 -8 3 -42 -8 -76 -23 -34 -15 -64 -25 -67 -22
-3 4 -6 1 -6 -6 0 -7 -4 -9 -10 -6 -5 3 -10 1 -10 -4 0 -6 -9 -11 -19 -11 -11
0 -22 -4 -26 -10 -3 -5 -13 -6 -22 -3 -10 4 -14 2 -10 -4 4 -7 -7 -13 -27 -17
-19 -4 -36 -10 -38 -14 -2 -4 -47 -29 -100 -57 -54 -27 -98 -53 -98 -58 0 -4
-4 -6 -9 -2 -5 3 -13 0 -17 -6 -7 -13 57 -2 66 11 3 4 21 11 40 15 19 4 41 11
50 16 19 10 130 47 161 53 24 5 44 9 89 20 14 3 36 8 50 10 14 3 36 8 50 11
34 8 114 16 177 18 29 1 53 7 53 12 0 6 5 3 10 -5 5 -8 10 -10 10 -4 0 8 42
11 135 10 74 0 135 -3 135 -6 0 -3 21 -5 46 -4 51 1 173 -18 192 -30 7 -4 12
-2 12 6 0 8 3 9 8 3 4 -5 12 -10 17 -11 6 0 26 -3 45 -8 19 -4 42 -8 50 -10 8
-2 23 -6 32 -10 9 -4 22 -5 28 -1 5 3 10 2 10 -3 0 -5 15 -13 33 -17 17 -4 34
-9 37 -9 3 -1 16 -6 30 -10 40 -13 184 -67 195 -74 6 -4 12 -7 15 -8 37 -11
50 -18 50 -25 0 -5 4 -8 8 -6 8 2 83 -33 92 -44 3 -4 15 -9 28 -13 12 -4 22
-12 22 -17 0 -6 4 -8 8 -5 5 3 18 -3 29 -14 12 -10 24 -16 27 -13 3 4 6 1 6
-5 0 -7 7 -12 15 -12 8 0 15 -4 15 -10 0 -5 7 -10 15 -10 8 0 15 -5 15 -11 0
-5 4 -8 9 -5 5 4 11 3 13 -2 1 -4 37 -33 78 -64 41 -31 90 -70 108 -87 18 -17
35 -31 37 -31 7 0 139 -135 180 -184 22 -26 50 -58 61 -70 l21 -23 -51 -24
c-28 -13 -53 -22 -55 -21 -2 2 -7 0 -10 -5 -3 -4 -35 -21 -71 -38 -36 -16 -68
-34 -72 -40 -4 -5 -8 -6 -8 -2 0 4 -20 -4 -45 -18 -47 -28 -50 -28 -98 16 -18
15 -45 40 -62 54 -46 39 -202 145 -214 145 -6 0 -11 4 -11 9 0 5 -11 12 -25
15 -14 4 -25 10 -25 15 0 5 -13 12 -30 16 -16 4 -30 11 -30 16 0 5 -5 9 -11 9
-6 0 -32 10 -58 23 -25 13 -48 24 -51 25 -11 2 -46 14 -65 22 -49 21 -187 60
-196 55 -5 -4 -9 -2 -9 3 0 5 -6 9 -12 9 -7 0 -38 5 -68 11 -119 25 -198 32
-360 31 -138 0 -170 -2 -185 -10 -5 -3 -27 -4 -47 -4 -21 1 -38 -1 -38 -4 0
-3 -12 -7 -27 -8 -31 -2 -128 -19 -128 -23 0 -1 -13 -4 -30 -6 -16 -3 -34 -9
-40 -13 -5 -5 -18 -7 -27 -6 -10 2 -18 0 -18 -5 0 -4 -15 -11 -32 -15 -18 -4
-35 -9 -38 -10 -3 -1 -18 -7 -35 -14 -16 -7 -34 -14 -40 -15 -5 -1 -29 -12
-53 -24 -23 -12 -42 -20 -42 -16 0 3 -7 -2 -16 -10 -8 -9 -22 -16 -30 -16 -9
0 -22 -6 -29 -12 -29 -26 -40 -34 -50 -36 -5 -1 -23 -12 -40 -24 -16 -13 -34
-22 -38 -20 -5 1 -6 -2 -2 -8 3 -6 12 -7 18 -3 12 8 33 13 55 15 6 1 12 5 12
10 0 4 3 7 8 6 4 -1 34 6 67 16 33 10 69 20 80 21 11 2 39 8 63 14 23 7 47 9
52 6 6 -3 10 -2 10 4 0 5 9 8 20 6 11 -2 22 -1 24 3 2 4 23 7 45 6 23 0 41 2
41 5 0 4 9 7 20 7 11 0 20 -4 20 -9 0 -5 6 -5 13 1 10 8 272 11 272 3 0 -2 20
-4 45 -6 25 -1 63 -6 85 -10 22 -3 51 -8 65 -11 14 -2 40 -6 58 -8 18 -3 39
-9 46 -15 7 -6 16 -8 19 -5 3 3 12 2 19 -2 7 -5 24 -10 38 -12 13 -2 30 -8 37
-14 7 -6 13 -7 13 -3 0 4 6 2 14 -4 8 -6 18 -11 22 -10 10 2 32 -6 149 -58 44
-19 82 -38 85 -41 3 -4 10 -8 16 -9 16 -3 173 -100 215 -134 20 -16 39 -29 42
-29 4 0 16 -10 29 -22 13 -13 42 -38 65 -57 34 -28 40 -38 32 -53 -5 -10 -15
-18 -22 -18 -7 0 -36 -16 -64 -35 -29 -19 -55 -35 -58 -35 -10 0 -100 -63
-103 -72 -2 -4 -8 -5 -13 -2 -6 3 -19 -4 -30 -17 -10 -12 -19 -19 -19 -16 0 6
-120 -70 -147 -93 -7 -5 -17 -10 -23 -10 -5 0 -10 -4 -10 -10 0 -5 -7 -10 -15
-10 -8 0 -15 -4 -15 -10 0 -5 -7 -10 -15 -10 -9 0 -18 -7 -21 -15 -7 -18 -42
-19 -81 -3 -15 6 -37 13 -48 14 -61 10 -84 17 -81 23 2 3 -13 6 -35 5 -21 0
-39 2 -39 5 0 7 -56 11 -212 14 -65 1 -118 0 -118 -3 0 -4 -10 -6 -22 -6 -13
-1 -39 -4 -58 -8 -19 -4 -44 -8 -55 -10 -21 -2 -130 -33 -155 -43 -8 -3 -18
-7 -22 -8 -5 -2 -10 -4 -13 -5 -3 -1 -8 -3 -12 -4 -5 -1 -18 -7 -30 -14 -13
-7 -23 -10 -23 -6 0 4 -9 -1 -20 -11 -11 -10 -20 -15 -20 -12 0 10 -153 -82
-170 -101 -15 -18 -22 -22 -39 -22 -5 0 -13 -9 -16 -20 -4 -11 -10 -18 -15
-15 -5 3 -16 -5 -25 -17 -8 -13 -19 -22 -22 -20 -4 2 -9 -2 -11 -8 -3 -9 1 -9
17 -1 11 7 21 8 21 4 0 -4 6 -1 13 7 7 8 17 16 22 17 22 4 140 48 145 54 3 3
15 5 28 4 13 -1 25 2 28 7 3 4 15 8 28 8 12 0 26 3 30 7 3 4 21 8 39 9 17 0
32 2 32 4 0 7 294 18 301 11 2 -2 14 -5 26 -7 28 -3 90 -12 143 -20 22 -3 46
-11 53 -16 6 -6 12 -7 12 -3 0 4 7 2 15 -5 8 -6 18 -9 22 -7 5 3 19 -1 33 -9
19 -10 21 -13 8 -14 -10 0 -18 -3 -18 -7 0 -5 -21 -21 -45 -38 -25 -16 -45
-33 -45 -37 0 -5 -7 -8 -15 -8 -7 0 -19 -8 -24 -17 -6 -10 -11 -14 -11 -10 0
5 -6 2 -14 -5 -7 -7 -24 -20 -36 -28 -12 -8 -28 -20 -34 -25 -6 -6 -40 -32
-76 -58 -36 -26 -72 -53 -80 -60 -8 -8 -42 -34 -75 -58 -33 -24 -62 -46 -65
-49 -3 -3 -25 -21 -50 -41 -82 -64 -195 -154 -200 -159 -3 -3 -25 -21 -50 -40
-51 -39 -93 -80 -81 -80 4 0 18 11 31 25 13 14 29 25 36 25 7 0 14 4 16 9 3 9
95 81 103 81 3 0 14 8 24 17 27 25 40 34 91 70 25 17 56 40 69 52 13 12 27 21
30 21 3 0 19 11 34 25 15 14 27 23 27 19 0 -4 14 5 30 21 17 16 30 26 30 22 0
-4 9 1 19 11 29 25 40 34 99 71 28 18 52 37 52 43 0 5 4 7 8 4 5 -3 24 8 43
25 19 16 37 29 42 29 10 0 110 70 119 84 4 6 8 8 8 4 0 -4 16 4 36 17 20 14
41 25 47 25 19 0 214 -102 227 -119 3 -4 21 -18 40 -31 62 -44 241 -210 225
-210 -3 0 4 -11 17 -24 24 -24 27 -28 81 -111 29 -44 107 -197 107 -209 0 -3
5 -17 12 -33 13 -32 12 -29 34 -108 19 -71 24 -91 29 -125 2 -14 6 -38 9 -55
9 -50 6 -323 -5 -345 -1 -3 -3 -9 -4 -15 0 -5 -5 -32 -10 -60 -5 -27 -8 -53
-7 -58 1 -4 -3 -7 -10 -7 -6 0 -9 -3 -5 -6 6 -6 -11 -67 -33 -119 -7 -16 -12
-34 -11 -39 1 -5 -3 -12 -9 -16 -6 -4 -12 -13 -14 -21 -4 -21 -49 -112 -63
-127 -6 -6 -15 -21 -18 -32 -3 -11 -11 -20 -16 -20 -6 0 -8 -4 -5 -9 3 -5 -1
-12 -10 -15 -8 -3 -12 -10 -9 -16 3 -5 1 -10 -5 -10 -6 0 -14 -8 -17 -17 -7
-18 -45 -61 -131 -149 -50 -51 -61 -78 -14 -34 12 11 25 20 30 20 4 0 21 12
38 28 16 15 52 45 79 67 28 21 61 49 75 62 14 12 36 33 50 45 14 13 35 36 48
52 12 16 22 25 22 21 0 -4 17 15 38 42 71 90 125 176 164 258 11 22 28 57 38
78 11 21 14 35 7 30 -8 -5 -8 -2 1 9 14 17 26 54 47 138 2 8 4 15 5 15 1 0 4
11 6 25 2 14 6 39 9 55 16 92 23 284 11 303 -3 6 -2 13 4 17 6 4 7 13 1 23 -9
17 -20 82 -24 134 -1 16 -5 28 -9 28 -5 0 -7 3 -6 8 4 13 -24 112 -33 117 -4
3 -6 12 -2 20 3 8 1 15 -4 15 -5 0 -10 6 -10 13 -1 26 -75 169 -135 258 -62
93 -220 261 -277 295 -17 10 -31 22 -31 26 0 4 -7 8 -15 8 -8 0 -15 3 -15 8 0
11 -110 75 -110 64 0 -4 -5 1 -11 11 -6 9 -14 15 -19 12 -5 -3 -11 -1 -15 5
-4 6 -11 7 -17 4 -7 -4 -8 -2 -4 4 4 8 0 12 -11 12 -11 1 -2 9 22 22 22 11 42
25 43 29 2 5 7 9 12 9 4 0 63 32 130 70 67 39 126 70 131 70 5 0 9 5 9 12 0 6
3 9 6 5 3 -3 23 4 43 17 20 12 72 41 116 63 l81 42 34 -41 c32 -38 58 -68 78
-93 4 -5 23 -32 42 -60 19 -27 38 -51 43 -53 4 -2 7 -8 7 -14 0 -5 13 -28 28
-51 38 -56 134 -255 137 -282 0 -5 6 -20 13 -31 6 -12 8 -24 5 -28 -3 -3 -1
-6 6 -6 7 0 11 -7 8 -15 -4 -8 -2 -17 2 -19 5 -3 14 -32 22 -65 7 -33 15 -58
18 -56 3 2 7 -9 8 -23 1 -15 4 -38 6 -52 3 -14 8 -45 12 -70 3 -25 9 -56 11
-70 8 -37 12 -403 5 -415 -3 -5 -6 -21 -7 -35 -4 -60 -17 -136 -25 -152 -5 -9
-8 -21 -7 -25 3 -15 -14 -83 -23 -89 -5 -3 -7 -9 -5 -13 5 -7 -28 -108 -51
-161 -3 -8 -7 -17 -7 -20 -3 -15 -42 -96 -49 -101 -5 -3 -9 -10 -9 -15 -2 -24
-11 -44 -20 -44 -5 0 -7 -4 -3 -9 3 -5 -1 -15 -8 -23 -7 -7 -18 -25 -24 -41
-7 -15 -17 -27 -23 -27 -5 0 -9 -3 -8 -7 3 -13 -24 -63 -34 -63 -4 0 -8 -5 -8
-11 0 -6 -15 -30 -32 -53 -18 -22 -37 -47 -43 -54 -5 -7 -21 -24 -35 -37 -14
-14 -22 -25 -18 -25 4 0 -33 -41 -83 -90 -49 -50 -94 -90 -99 -90 -6 0 -10 -4
-10 -8 0 -5 -33 -33 -72 -62 -40 -30 -75 -58 -76 -62 -2 -4 -7 -6 -11 -4 -4 3
-13 -5 -21 -17 -12 -20 -12 -21 3 -8 10 7 17 10 17 5 0 -5 5 -1 11 9 6 9 14
15 20 12 5 -4 9 -1 9 4 0 6 3 10 8 9 4 -2 25 8 47 21 22 14 43 24 47 23 3 -1
12 5 18 13 7 8 19 15 26 15 8 0 14 5 14 10 0 6 5 10 10 10 13 0 164 104 190
130 3 3 32 28 65 55 98 82 217 206 285 297 8 11 23 29 33 39 9 11 14 19 10 19
-5 0 -3 4 2 8 13 9 66 90 64 98 0 4 4 10 9 13 8 5 64 107 67 121 0 3 11 24 23
46 33 64 62 146 55 157 -3 6 -1 7 4 4 9 -6 16 14 27 73 1 3 4 10 8 16 4 6 10
26 13 45 9 46 13 64 15 64 2 0 10 37 12 63 1 12 7 22 13 22 5 0 3 5 -5 10 -8
5 -10 10 -4 10 6 0 10 10 9 22 -1 13 0 27 3 32 20 35 19 416 -2 516 -1 8 -7
38 -11 65 -10 57 -12 64 -15 68 -1 1 -3 10 -5 20 -9 45 -29 123 -35 132 -4 6
-13 31 -20 58 -7 26 -17 50 -21 53 -5 3 -9 12 -9 20 0 31 -125 269 -164 312
-12 13 -19 26 -17 29 1 2 -5 15 -16 26 -10 12 -29 38 -43 57 -34 48 -52 70
-72 89 -10 8 -18 18 -18 22 0 8 70 42 88 42 6 0 12 4 12 9 0 5 6 8 13 7 6 -2
28 4 47 12 19 9 63 24 97 35 35 10 63 22 63 26 0 11 44 0 48 -12 2 -6 10 -17
19 -25 8 -8 12 -15 8 -15 -3 0 3 -13 14 -29 12 -16 21 -34 21 -39 0 -6 4 -12
8 -14 10 -4 57 -100 54 -110 -1 -5 2 -8 7 -8 9 0 26 -48 23 -62 -1 -5 2 -8 7
-8 8 0 55 -116 51 -128 0 -1 6 -15 14 -31 9 -16 12 -31 9 -35 -4 -3 -1 -6 5
-6 6 0 9 -7 5 -16 -3 -9 -1 -19 5 -23 7 -4 13 -19 14 -34 1 -15 5 -27 9 -27 3
0 5 -10 5 -22 -1 -13 0 -27 3 -33 6 -11 7 -16 17 -65 4 -19 8 -45 8 -57 1 -13
4 -23 7 -23 3 0 6 -16 7 -35 1 -20 4 -40 8 -46 21 -35 22 -502 0 -537 -4 -7
-2 -12 4 -12 7 0 8 -6 0 -19 -5 -11 -11 -38 -12 -60 -1 -23 -4 -41 -7 -41 -3
0 -7 -12 -7 -27 -1 -16 -4 -40 -8 -55 -3 -16 -8 -40 -12 -55 -3 -15 -7 -30 -9
-33 -2 -4 -7 -22 -10 -40 -3 -18 -9 -38 -13 -44 -3 -6 -7 -16 -8 -22 -3 -20
-45 -137 -62 -174 -9 -19 -16 -37 -17 -40 -1 -15 -79 -170 -85 -170 -4 0 -7
-6 -7 -12 0 -18 -114 -198 -125 -198 -4 0 -8 -5 -8 -12 0 -11 -76 -115 -109
-149 -22 -23 -62 -69 -89 -103 -12 -16 -22 -26 -22 -22 0 3 -29 -22 -64 -57
-76 -74 -114 -106 -183 -155 -29 -20 -53 -40 -53 -44 0 -7 121 55 162 83 14
11 31 19 37 19 5 0 14 8 20 17 5 10 13 14 18 10 4 -5 0 -13 -10 -18 -9 -6 -15
-14 -12 -20 4 -5 21 2 39 16 18 14 38 25 44 25 7 0 12 4 12 10 0 5 4 9 8 7 11
-3 172 104 172 115 0 5 5 6 10 3 6 -3 13 1 16 9 3 9 10 16 15 16 9 0 45 28 85
68 13 12 26 22 28 22 6 0 149 143 196 197 14 15 48 57 75 93 28 35 58 73 67
84 10 11 24 32 30 48 7 15 16 28 20 28 5 0 8 6 8 14 0 8 4 16 8 18 16 7 142
243 142 267 0 6 4 11 10 11 5 0 9 3 8 8 -1 4 3 18 9 32 15 35 64 172 69 190 2
8 16 62 32 120 15 58 27 115 26 127 -1 13 2 23 6 23 4 0 7 12 8 28 0 15 1 29
2 32 4 11 11 88 13 142 1 32 4 58 7 58 3 0 4 40 4 90 -1 63 2 88 10 84 6 -3 2
2 -8 10 -11 9 -14 16 -7 16 7 0 10 4 6 9 -3 6 -7 45 -10 88 -2 43 -7 89 -10
103 -3 14 -6 42 -7 63 -1 20 -4 37 -8 37 -3 0 -7 12 -7 28 -1 28 -4 40 -22
110 -7 23 -9 47 -6 52 3 6 3 10 -2 10 -4 0 -13 11 -20 25 -6 14 -7 23 -3 20 5
-3 -3 25 -17 62 -14 38 -25 74 -26 81 0 6 -4 12 -8 12 -5 0 -6 7 -3 15 4 8 2
15 -4 15 -5 0 -13 12 -18 28 -4 15 -8 29 -9 32 -8 26 -66 140 -75 145 -8 5 -7
11 2 23 10 12 10 14 1 8 -7 -4 -13 -3 -13 3 0 5 12 8 28 6 15 -2 27 -4 27 -5
0 -1 11 -3 25 -5 83 -8 166 -48 229 -108 45 -43 92 -133 94 -183 1 -19 5 -34
8 -34 5 0 5 -152 0 -157 -2 -2 -3 -23 -4 -48 0 -25 -3 -45 -7 -45 -3 0 -7 -13
-8 -30 -1 -16 -7 -41 -12 -54 -5 -14 -6 -28 -1 -30 4 -3 8 0 8 7 0 7 17 47 37
90 20 43 38 85 40 95 1 9 6 24 9 32 11 25 38 111 43 134 3 11 7 30 9 41 3 11
7 31 11 45 3 14 7 40 9 59 2 18 6 36 9 38 3 3 1 16 -4 29 -6 14 -6 24 -1 24
10 0 9 18 0 35 -4 6 -5 18 -3 28 3 24 -23 113 -44 146 -24 40 -84 101 -99 101
-7 0 -13 5 -13 12 0 6 -3 8 -7 5 -3 -4 -11 -3 -17 2 -10 8 -67 26 -121 37 -17
4 -166 4 -232 0 -13 0 -23 -5 -23 -9 0 -5 -4 -6 -9 -3 -5 4 -37 0 -70 -8 -34
-8 -59 -10 -55 -5 3 5 -1 9 -9 9 -8 0 -23 13 -34 29 -39 63 -184 218 -289 311
-78 69 -143 120 -152 120 -6 0 -12 4 -14 8 -1 5 -37 31 -78 57 -41 27 -87 56
-102 67 -15 10 -30 18 -34 18 -3 0 -20 10 -37 22 -18 13 -34 23 -37 22 -3 0
-39 15 -80 33 -109 50 -131 59 -175 73 -22 7 -44 16 -49 20 -5 5 -15 6 -22 3
-8 -3 -14 1 -14 8 0 7 -3 10 -6 6 -3 -3 -22 0 -42 7 -21 7 -43 11 -49 9 -7 -3
-13 0 -13 6 0 6 -3 10 -7 9 -5 -1 -24 2 -43 6 -19 5 -47 10 -61 11 -15 1 -31
5 -36 8 -5 3 -28 7 -51 8 -23 2 -42 5 -42 8 0 4 -24 6 -54 6 -30 0 -52 3 -50
6 2 4 -86 7 -196 7 -119 0 -202 -3 -206 -9 -4 -6 -11 -6 -20 2 -8 6 -14 7 -14
2z"/>
<path d="M635 1810 c-3 -5 -1 -10 4 -10 6 0 11 5 11 10 0 6 -2 10 -4 10 -3 0
-8 -4 -11 -10z"/>
<path d="M2906 445 c-11 -8 -15 -15 -10 -15 6 0 19 7 30 15 10 8 15 14 9 14
-5 0 -19 -6 -29 -14z"/>
</g>
</svg>
